<svg width="303" height="44" viewBox="0 0 303 44" fill="none" xmlns="http://www.w3.org/2000/svg">
<circle cx="22" cy="22" r="22" fill="#808080"/>
<circle cx="50" cy="22" r="22" fill="#71A3FF"/>
<path d="M85.5801 20.1719C85.5801 16.7083 86.4733 13.9648 88.2598 11.9414C90.0462 9.89974 92.3522 8.87891 95.1777 8.87891C97.0007 8.87891 98.5592 9.38021 99.8535 10.3828C101.166 11.3854 102.141 12.625 102.779 14.1016L99.6895 15.1133C98.5228 13.0169 97.0007 11.9688 95.123 11.9688C93.3366 11.9688 91.9147 12.7161 90.8574 14.2109C89.8184 15.6875 89.2988 17.6745 89.2988 20.1719C89.2988 22.7057 89.8275 24.7109 90.8848 26.1875C91.9421 27.6641 93.3548 28.4023 95.123 28.4023C96.2715 28.4023 97.2832 28.056 98.1582 27.3633C99.0514 26.6706 99.6986 25.8229 100.1 24.8203L103.326 25.832C103.053 26.4883 102.697 27.1263 102.26 27.7461C101.84 28.3477 101.303 28.9492 100.646 29.5508C100.008 30.1341 99.2155 30.6081 98.2676 30.9727C97.3197 31.319 96.2897 31.4922 95.1777 31.4922C92.4069 31.4922 90.11 30.4896 88.2871 28.4844C86.4824 26.4609 85.5801 23.6901 85.5801 20.1719ZM108.467 23.125C108.467 24.9479 108.84 26.306 109.588 27.1992C110.335 28.0924 111.21 28.5391 112.213 28.5391C113.197 28.5391 114.063 28.0924 114.811 27.1992C115.558 26.306 115.932 24.9479 115.932 23.125C115.932 21.2656 115.558 19.8984 114.811 19.0234C114.063 18.1302 113.197 17.6836 112.213 17.6836C111.229 17.6836 110.354 18.1302 109.588 19.0234C108.84 19.8984 108.467 21.2656 108.467 23.125ZM104.912 23.125C104.912 20.7734 105.532 18.7865 106.771 17.1641C108.011 15.5417 109.825 14.7305 112.213 14.7305C114.583 14.7305 116.387 15.5417 117.627 17.1641C118.867 18.7865 119.486 20.7734 119.486 23.125C119.486 23.8542 119.413 24.5833 119.268 25.3125C119.14 26.0417 118.903 26.7891 118.557 27.5547C118.21 28.3021 117.773 28.9674 117.244 29.5508C116.715 30.1159 116.014 30.5807 115.139 30.9453C114.282 31.3099 113.307 31.4922 112.213 31.4922C111.137 31.4922 110.162 31.319 109.287 30.9727C108.43 30.6081 107.729 30.1523 107.182 29.6055C106.653 29.0404 106.206 28.3841 105.842 27.6367C105.495 26.8711 105.249 26.1237 105.104 25.3945C104.976 24.6471 104.912 23.8906 104.912 23.125ZM122.33 31V15.2227H125.693V17.0547C125.967 16.526 126.459 16.0065 127.17 15.4961C127.881 14.9857 128.738 14.7305 129.74 14.7305C131.472 14.7305 132.748 15.6693 133.568 17.5469C133.696 17.2917 133.86 17.0365 134.061 16.7812C134.279 16.526 134.571 16.2253 134.936 15.8789C135.318 15.5326 135.801 15.2591 136.385 15.0586C136.986 14.8398 137.633 14.7305 138.326 14.7305C141.553 14.7305 143.166 16.7721 143.166 20.8555V31H139.666V20.9648C139.666 19.8711 139.511 19.0508 139.201 18.5039C138.891 17.957 138.344 17.6836 137.561 17.6836C136.631 17.6836 135.874 18.0755 135.291 18.8594C134.726 19.625 134.443 20.5729 134.443 21.7031V31H131.025V20.8828C131.025 18.75 130.314 17.6836 128.893 17.6836C127.908 17.6836 127.143 18.0482 126.596 18.7773C126.067 19.5065 125.803 20.4635 125.803 21.6484V31H122.33ZM150.303 23.0977C150.303 24.7565 150.613 26.0781 151.232 27.0625C151.87 28.0469 152.755 28.5391 153.885 28.5391C154.96 28.5391 155.835 28.0651 156.51 27.1172C157.184 26.151 157.521 24.8112 157.521 23.0977C157.521 21.4388 157.193 20.1263 156.537 19.1602C155.899 18.1758 155.015 17.6836 153.885 17.6836C152.773 17.6836 151.898 18.1849 151.26 19.1875C150.622 20.1901 150.303 21.4935 150.303 23.0977ZM146.885 37.4531V15.2227H150.221V17.2734C151.187 15.5781 152.572 14.7305 154.377 14.7305C156.291 14.7305 157.877 15.487 159.135 17C160.411 18.4948 161.049 20.5273 161.049 23.0977C161.049 24.5378 160.848 25.8229 160.447 26.9531C160.046 28.0651 159.508 28.9401 158.834 29.5781C158.178 30.2161 157.467 30.6901 156.701 31C155.954 31.3281 155.179 31.4922 154.377 31.4922C153.356 31.4922 152.499 31.2643 151.807 30.8086C151.132 30.3346 150.64 29.7878 150.33 29.168V37.4531H146.885ZM166.49 26.5703C166.49 27.1536 166.718 27.6458 167.174 28.0469C167.648 28.4297 168.268 28.6211 169.033 28.6211C170.127 28.6211 171.057 28.2565 171.822 27.5273C172.606 26.7982 172.998 25.8411 172.998 24.6562V23.207C172.16 23.4076 171.148 23.599 169.963 23.7812C167.648 24.1458 166.49 25.0755 166.49 26.5703ZM162.99 26.8711C162.99 23.8997 165.196 22.0859 169.607 21.4297C171.212 21.1927 172.342 20.974 172.998 20.7734V19.9258C172.998 19.1602 172.725 18.5586 172.178 18.1211C171.631 17.6836 170.902 17.4648 169.99 17.4648C168.258 17.4648 166.764 18.1758 165.506 19.5977L163.4 17.793C164.221 16.8268 165.196 16.0794 166.326 15.5508C167.475 15.0039 168.678 14.7305 169.936 14.7305C172.287 14.7305 173.964 15.3047 174.967 16.4531C175.969 17.5833 176.471 19.1693 176.471 21.2109V31H173.107V29.0312C172.779 29.7057 172.205 30.2891 171.385 30.7812C170.583 31.2552 169.635 31.4922 168.541 31.4922C166.809 31.4922 165.451 31.0638 164.467 30.207C163.482 29.3503 162.99 28.2383 162.99 26.8711ZM180.025 31V15.2227H183.389V17.2188H183.416C183.689 16.6354 184.191 16.0794 184.92 15.5508C185.667 15.0039 186.624 14.7305 187.791 14.7305C189.359 14.7305 190.607 15.2135 191.537 16.1797C192.467 17.1458 192.932 18.7044 192.932 20.8555V31H189.459V21.3203C189.459 18.8958 188.639 17.6836 186.998 17.6836C185.995 17.6836 185.157 18.0846 184.482 18.8867C183.826 19.6888 183.498 20.6823 183.498 21.8672V31H180.025ZM194.791 15.2227H198.592L201.299 23.3438C201.755 24.8385 202.101 26.0508 202.338 26.9805H202.447C202.538 26.6523 202.876 25.4401 203.459 23.3438L205.947 15.2227H209.721L203.186 33.0781C202.602 34.6823 201.846 35.8125 200.916 36.4688C200.005 37.125 198.865 37.4531 197.498 37.4531H196.432V34.5547H196.924C197.744 34.5547 198.41 34.3724 198.92 34.0078C199.449 33.6615 199.868 33.0508 200.178 32.1758L200.697 30.6172L194.791 15.2227ZM219.182 31V9.37109H222.955L229.49 21.2656L231.896 25.6406H232.033C231.76 23.7266 231.623 21.6484 231.623 19.4062V9.37109H235.232V31H231.459L224.924 19.3242L222.518 14.8125H222.381C222.654 16.9453 222.791 19.0234 222.791 21.0469V31H219.182ZM242.096 26.5703C242.096 27.1536 242.324 27.6458 242.779 28.0469C243.253 28.4297 243.873 28.6211 244.639 28.6211C245.732 28.6211 246.662 28.2565 247.428 27.5273C248.212 26.7982 248.604 25.8411 248.604 24.6562V23.207C247.765 23.4076 246.753 23.599 245.568 23.7812C243.253 24.1458 242.096 25.0755 242.096 26.5703ZM238.596 26.8711C238.596 23.8997 240.801 22.0859 245.213 21.4297C246.817 21.1927 247.947 20.974 248.604 20.7734V19.9258C248.604 19.1602 248.33 18.5586 247.783 18.1211C247.236 17.6836 246.507 17.4648 245.596 17.4648C243.864 17.4648 242.369 18.1758 241.111 19.5977L239.006 17.793C239.826 16.8268 240.801 16.0794 241.932 15.5508C243.08 15.0039 244.283 14.7305 245.541 14.7305C247.893 14.7305 249.57 15.3047 250.572 16.4531C251.575 17.5833 252.076 19.1693 252.076 21.2109V31H248.713V29.0312C248.385 29.7057 247.811 30.2891 246.99 30.7812C246.188 31.2552 245.24 31.4922 244.146 31.4922C242.415 31.4922 241.057 31.0638 240.072 30.207C239.088 29.3503 238.596 28.2383 238.596 26.8711ZM255.631 31V15.2227H258.994V17.0547C259.268 16.526 259.76 16.0065 260.471 15.4961C261.182 14.9857 262.038 14.7305 263.041 14.7305C264.773 14.7305 266.049 15.6693 266.869 17.5469C266.997 17.2917 267.161 17.0365 267.361 16.7812C267.58 16.526 267.872 16.2253 268.236 15.8789C268.619 15.5326 269.102 15.2591 269.686 15.0586C270.287 14.8398 270.934 14.7305 271.627 14.7305C274.854 14.7305 276.467 16.7721 276.467 20.8555V31H272.967V20.9648C272.967 19.8711 272.812 19.0508 272.502 18.5039C272.192 17.957 271.645 17.6836 270.861 17.6836C269.932 17.6836 269.175 18.0755 268.592 18.8594C268.027 19.625 267.744 20.5729 267.744 21.7031V31H264.326V20.8828C264.326 18.75 263.615 17.6836 262.193 17.6836C261.209 17.6836 260.443 18.0482 259.896 18.7773C259.368 19.5065 259.104 20.4635 259.104 21.6484V31H255.631ZM279.119 23.043C279.119 20.5091 279.812 18.4948 281.197 17C282.601 15.487 284.36 14.7305 286.475 14.7305C288.553 14.7305 290.266 15.487 291.615 17C292.964 18.513 293.639 20.4818 293.639 22.9062C293.639 23.3802 293.611 23.8451 293.557 24.3008H282.619C282.619 25.5039 282.975 26.543 283.686 27.418C284.415 28.2747 285.408 28.7031 286.666 28.7031C287.541 28.7031 288.307 28.4935 288.963 28.0742C289.637 27.6367 290.148 27.0807 290.494 26.4062L293.393 27.3906C292.882 28.5573 292.053 29.5326 290.904 30.3164C289.756 31.1003 288.325 31.4922 286.611 31.4922C284.406 31.4922 282.601 30.7266 281.197 29.1953C279.812 27.6641 279.119 25.6133 279.119 23.043ZM282.674 21.8672H290.111C290.111 20.6641 289.792 19.6432 289.154 18.8047C288.516 17.9479 287.623 17.5195 286.475 17.5195C285.326 17.5195 284.406 17.957 283.713 18.832C283.038 19.6888 282.692 20.7005 282.674 21.8672Z" fill="black"/>
</svg>
